<svg id="Layer_1" data-name="Layer 1" xmlns="http://www.w3.org/2000/svg" viewBox="0 0 355 353.86">
  <defs>
    <style>
      .cls__1 {
        fill: #41464b;
      }
      .cls__2 {
        fill: #afafaf;
      }
      .cls__3 {
        fill: #4cbed8;
      }
      .cls__4 {
        fill: #fff;
      }
      .cls__5 {
        fill: #fb605a;
      }
      .cls__6 {
        fill: #fed65c;
      }

    </style>
  </defs>
  <title>vector_486-487-490_09</title><path class="cls__1" d="M99.1,153.49H0V12.28H79.44L99.1,31.94ZM3.52,150H95.58V33.39L78,15.8H3.52Z" transform="translate(0 -0.57)"/><polygon class="cls__1" points="97.34 33.85 76.95 33.85 76.95 13.47 80.47 13.47 80.47 30.34 97.34 30.34 97.34 33.85"/><rect class="cls__1" x="52.88" y="137.26" width="33.73" height="3.51"/><rect class="cls__2" x="33.03" y="62.06" width="52.16" height="71.28"/><rect class="cls__3" x="13.91" y="44.24" width="71.28" height="17.82"/><rect class="cls__1" x="41.01" y="51.4" width="3.41" height="3.51"/><rect class="cls__1" x="47.84" y="51.4" width="3.42" height="3.51"/><rect class="cls__1" x="54.67" y="51.4" width="3.42" height="3.51"/><path class="cls__1" d="M86.95,135.67H12.15V43.06h74.8v92.62Zm-71.28-3.51H83.43V46.57H15.66Z" transform="translate(0 -0.57)"/><rect class="cls__1" x="13.91" y="121.4" width="71.28" height="3.51"/><rect class="cls__1" x="13.91" y="111.22" width="71.28" height="3.51"/><rect class="cls__1" x="13.91" y="101.04" width="71.28" height="3.51"/><rect class="cls__1" x="13.91" y="90.86" width="71.28" height="3.51"/><rect class="cls__1" x="13.91" y="80.68" width="71.28" height="3.51"/><rect class="cls__1" x="13.91" y="70.49" width="71.28" height="3.51"/><rect class="cls__1" x="13.91" y="60.31" width="71.28" height="3.51"/><rect class="cls__1" x="31.28" y="62.06" width="3.52" height="71.28"/><rect class="cls__1" x="12.49" y="23.51" width="21.56" height="3.51"/><rect class="cls__1" x="12.49" y="30.34" width="40.39" height="3.51"/><path class="cls__4" d="M62.29,83A41.25,41.25,0,0,1,33,70.89V241.57a41.25,41.25,0,0,0,29.26,12.11h82.9a14.63,14.63,0,0,1,14.63,14.63V97.63A14.63,14.63,0,0,0,145.19,83H62.29Z" transform="translate(0 -0.57)"/><path class="cls__4" d="M257.35,83a41.25,41.25,0,0,0,29.26-12.12V241.57a41.25,41.25,0,0,1-29.26,12.11h-82.9a14.63,14.63,0,0,0-14.63,14.63V97.63A14.63,14.63,0,0,1,174.45,83h82.9Z" transform="translate(0 -0.57)"/><rect class="cls__1" x="48.59" y="222.35" width="3.51" height="8.57"/><rect class="cls__1" x="55.68" y="219.75" width="3.51" height="11.18"/><rect class="cls__1" x="62.76" y="214.25" width="3.51" height="16.67"/><rect class="cls__1" x="69.86" y="204.54" width="3.51" height="26.39"/><rect class="cls__1" x="76.95" y="212.17" width="3.51" height="18.75"/><rect class="cls__1" x="84.03" y="216.58" width="3.51" height="14.35"/><rect class="cls__1" x="91.13" y="212.99" width="3.51" height="17.93"/><rect class="cls__1" x="98.22" y="203.95" width="3.51" height="26.97"/><rect class="cls__1" x="105.3" y="199.08" width="3.51" height="31.84"/><rect class="cls__1" x="112.39" y="206.94" width="3.51" height="23.98"/><rect class="cls__1" x="119.48" y="208.57" width="3.51" height="22.35"/><rect class="cls__1" x="126.57" y="206.94" width="3.52" height="23.98"/><rect class="cls__1" x="133.66" y="198.72" width="3.51" height="32.21"/><rect class="cls__1" x="140.75" y="195.08" width="3.51" height="35.85"/><rect class="cls__1" x="48.64" y="234.29" width="95.58" height="3.51"/><path class="cls__5" d="M145.19,253.68H62.29A41.25,41.25,0,0,1,33,241.57V83H21.33V268.31H159.82a14.63,14.63,0,0,0-14.63-14.63Z" transform="translate(0 -0.57)"/><path class="cls__5" d="M286.61,83V241.57a41.25,41.25,0,0,1-29.26,12.11h-82.9a14.63,14.63,0,0,0-14.63,14.63H298.32V83Z" transform="translate(0 -0.57)"/><path
    class="cls__1"
    d="M159.82,270.06a1.76,1.76,0,0,1-1.76-1.76,12.88,12.88,0,0,0-12.87-12.87H62.29a42.84,42.84,0,0,1-30.5-12.63,1.76,1.76,0,0,1-.51-1.24V70.89a1.76,1.76,0,0,1,3-1.24,39.36,39.36,0,0,0,28,11.6h82.9a16.39,16.39,0,0,1,16.39,16.39V268.31A1.76,1.76,0,0,1,159.82,270.06Zm-125-29.24a39.34,39.34,0,0,0,27.5,11.09h82.9a16.28,16.28,0,0,1,11.59,4.8,17,17,0,0,1,1.29,1.44V97.63a12.87,12.87,0,0,0-12.87-12.87H62.29a42.81,42.81,0,0,1-27.5-9.9Z"
    transform="translate(0 -0.57)"/><path
    class="cls__1"
    d="M159.82,270.06a1.76,1.76,0,0,1-1.76-1.76V97.63a16.39,16.39,0,0,1,16.39-16.39h82.9a39.36,39.36,0,0,0,28-11.6,1.76,1.76,0,0,1,3,1.24V241.56a1.76,1.76,0,0,1-.52,1.24,42.84,42.84,0,0,1-30.5,12.63h-82.9a12.87,12.87,0,0,0-12.87,12.87A1.76,1.76,0,0,1,159.82,270.06ZM174.45,84.76a12.87,12.87,0,0,0-12.87,12.87V258.16a16.58,16.58,0,0,1,1.28-1.44,16.28,16.28,0,0,1,11.59-4.8h82.9a39.34,39.34,0,0,0,27.5-11.09v-166a42.8,42.8,0,0,1-27.5,9.89Z"
    transform="translate(0 -0.57)"/><rect class="cls__1" x="48.64" y="179.67" width="95.58" height="3.51"/><rect class="cls__1" x="48.64" y="186.49" width="95.58" height="3.52"/><rect class="cls__1" x="48.64" y="172.84" width="95.58" height="3.51"/><rect class="cls__1" x="48.64" y="166.01" width="95.58" height="3.51"/><rect class="cls__1" x="48.64" y="159.18" width="95.58" height="3.51"/><rect class="cls__1" x="48.64" y="152.36" width="95.58" height="3.51"/><rect class="cls__1" x="48.64" y="145.53" width="95.58" height="3.51"/><rect class="cls__1" x="48.64" y="138.71" width="95.58" height="3.51"/><rect class="cls__1" x="48.64" y="131.88" width="95.58" height="3.51"/><rect class="cls__1" x="96.43" y="125.05" width="47.79" height="3.51"/><rect class="cls__1" x="96.43" y="118.22" width="47.79" height="3.51"/><rect class="cls__1" x="96.43" y="111.4" width="47.79" height="3.51"/><rect class="cls__1" x="96.43" y="104.57" width="47.79" height="3.51"/><rect class="cls__1" x="96.43" y="97.74" width="47.79" height="3.51"/><rect class="cls__1" x="188.72" y="179.67" width="29.62" height="3.51"/><rect class="cls__1" x="188.72" y="186.49" width="29.62" height="3.52"/><rect class="cls__1" x="188.72" y="193.32" width="29.62" height="3.51"/><rect class="cls__1" x="188.72" y="200.15" width="29.62" height="3.52"/><rect class="cls__1" x="188.72" y="206.98" width="29.62" height="3.51"/><rect class="cls__1" x="188.72" y="213.8" width="29.62" height="3.51"/><rect class="cls__1" x="188.72" y="220.63" width="82.29" height="3.51"/><rect class="cls__1" x="188.72" y="227.46" width="82.29" height="3.51"/><rect class="cls__1" x="188.72" y="234.29" width="40.35" height="3.51"/><rect class="cls__1" x="188.72" y="172.84" width="82.29" height="3.51"/><rect class="cls__1" x="188.72" y="166.01" width="82.29" height="3.51"/><rect class="cls__1" x="188.72" y="159.18" width="82.29" height="3.51"/><rect class="cls__1" x="188.72" y="152.36" width="82.29" height="3.51"/><rect class="cls__1" x="188.72" y="145.53" width="82.29" height="3.51"/><rect class="cls__1" x="188.72" y="138.71" width="82.29" height="3.51"/><rect class="cls__1" x="188.72" y="131.88" width="82.29" height="3.51"/><rect class="cls__1" x="188.72" y="125.05" width="82.29" height="3.51"/><rect class="cls__1" x="188.72" y="118.22" width="82.29" height="3.51"/><rect class="cls__1" x="188.72" y="111.4" width="82.29" height="3.51"/><rect class="cls__1" x="188.72" y="104.57" width="82.29" height="3.51"/><rect class="cls__1" x="188.72" y="97.74" width="82.29" height="3.51"/><rect class="cls__5" x="48.64" y="97.79" width="43.89" height="30.77"/><rect class="cls__1" x="62.05" y="111.42" width="3.41" height="3.51"/><rect class="cls__1" x="68.88" y="111.42" width="3.41" height="3.51"/><rect class="cls__1" x="75.7" y="111.42" width="3.41" height="3.51"/><rect class="cls__2" x="222.24" y="179.72" width="48.77" height="37.55"/><rect class="cls__5" x="175.43" y="82.43" width="13.29" height="185.31"/><path class="cls__2" d="M185.88,288.24a2.87,2.87,0,0,0,2.84-2.84v-3.8H175.43v3.8a2.87,2.87,0,0,0,2.84,2.84h7.61Z" transform="translate(0 -0.57)"/><polygon class="cls__1" points="187.05 82.99 182.07 68.05 177.09 82.99 173.76 81.88 182.07 56.94 190.39 81.88 187.05 82.99"/><rect class="cls__1" x="179.85" y="67.37" width="4.45" height="3.51"/><path class="cls__1" d="M188.72,270.06H175.43a1.76,1.76,0,0,1-1.76-1.76V83a1.76,1.76,0,0,1,1.76-1.76h13.29A1.76,1.76,0,0,1,190.48,83V268.31A1.76,1.76,0,0,1,188.72,270.06Zm-11.54-3.51H187V84.76h-9.78Z" transform="translate(0 -0.57)"/><rect class="cls__1" x="180.31" y="82.43" width="3.51" height="185.31"/><path class="cls__1" d="M190.48,283.36H173.67V266.55h16.81Zm-13.29-3.51H187v-9.78h-9.78Z" transform="translate(0 -0.57)"/><path class="cls__1" d="M185.88,290h-7.61a4.62,4.62,0,0,1-4.6-4.6v-5.56h16.81v5.56a4.62,4.62,0,0,1-4.6,4.6Zm-8.69-6.65v2a1.11,1.11,0,0,0,1.09,1.09h7.61A1.11,1.11,0,0,0,187,285.4v-2Z" transform="translate(0 -0.57)"/><rect class="cls__1" x="175.43" y="272.62" width="13.29" height="3.52"/><rect class="cls__1" x="320.26" y="113.68" width="3.52" height="1.76"/><path
    class="cls__1"
    d="M323.77,271.14h-3.52v-3.52h3.52Zm0-7.05h-3.52v-3.53h3.52Zm0-7.05h-3.52v-3.52h3.52Zm0-7.05h-3.52v-3.52h3.52Zm0-7.05h-3.52V239.4h3.52Zm0-7.05h-3.52v-3.53h3.52Zm0-7.05h-3.52V225.3h3.52Zm0-7.05h-3.52v-3.53h3.52Zm0-7.05h-3.52V211.2h3.52Zm0-7.05h-3.52v-3.53h3.52Zm0-7.05h-3.52V197.1h3.52Zm0-7.05h-3.52V190h3.52Zm0-7.05h-3.52V183h3.52Zm0-7.05h-3.52v-3.53h3.52Zm0-7.05h-3.52v-3.52h3.52Zm0-7.05h-3.52v-3.53h3.52Zm0-7.05h-3.52v-3.52h3.52Zm0-7.05h-3.52v-3.52h3.52Zm0-7h-3.52v-3.53h3.52Zm0-7.05h-3.52v-3.53h3.52Zm0-7.05h-3.52v-3.53h3.52Zm0-7.05h-3.52v-3.53h3.52Z"
    transform="translate(0 -0.57)"/><rect class="cls__1" x="320.26" y="274.09" width="3.52" height="1.76"/><rect class="cls__2" x="309.81" y="94.94" width="24.4" height="12.49"/><rect class="cls__1" x="306.84" y="93.18" width="30.34" height="3.51"/><rect class="cls__1" x="306.84" y="105.67" width="30.34" height="3.51"/><rect class="cls__1" x="306.84" y="99.42" width="30.34" height="3.51"/><rect class="cls__1" x="315.32" y="111.92" width="13.39" height="3.51"/><path class="cls__6" d="M299.71,51A22.31,22.31,0,1,0,322,28.64,22.31,22.31,0,0,0,299.71,51Z" transform="translate(0 -0.57)"/><rect class="cls__1" x="317.13" y="50.38" width="3.52" height="44.55"/><rect class="cls__1" x="323.38" y="50.38" width="3.52" height="44.55"/><rect class="cls__1" x="313.09" y="48.63" width="17.85" height="3.51"/><path
    class="cls__1"
    d="M336,95.5h-3.52V92.78A26.15,26.15,0,0,1,341,73.51l.26-.22a29.47,29.47,0,1,0-38.44,0l.24.22a26.13,26.13,0,0,1,8.53,19.28V95.5h-3.52V92.78a22.61,22.61,0,0,0-7.38-16.68l-.16-.14a33,33,0,1,1,43,0l-.15.13a22.64,22.64,0,0,0-7.4,16.7V95.5Z"
    transform="translate(0 -0.57)"/><rect class="cls__3" x="247.6" y="273.9" width="97.53" height="66.73"/><rect class="cls__1" x="247.6" y="305.51" width="15.72" height="3.52"/><rect class="cls__1" x="329.41" y="305.51" width="15.72" height="3.52"/><rect class="cls__1" x="270.5" y="305.51" width="51.72" height="3.52"/><path class="cls__1" d="M313.52,274.47H310v-9.24a1.33,1.33,0,0,0-1.33-1.32H284a1.29,1.29,0,0,0-.93.38,1.32,1.32,0,0,0-.4.94v9.24H279.2v-9.24a4.84,4.84,0,0,1,4.84-4.83h24.64a4.84,4.84,0,0,1,4.84,4.83v9.24Z" transform="translate(0 -0.57)"/><path class="cls__1" d="M272.26,316.78h-10.7V298.89h10.7Zm-7.18-3.52h3.67V302.41h-3.67Z" transform="translate(0 -0.57)"/><path class="cls__1" d="M331.17,316.78h-10.7V298.89h10.7ZM324,313.26h3.67V302.41H324Z" transform="translate(0 -0.57)"/><rect class="cls__4" x="1.76" y="258.77" width="59.75" height="81.48"/><path class="cls__1" d="M63.26,342.58H0v-85H63.26ZM3.52,339.06H59.75v-78H3.52Z" transform="translate(0 -0.57)"/><rect class="cls__2" x="10.72" y="267.74" width="41.82" height="14.67"/><path class="cls__1" d="M22,301.3H10.86V290.18H22Zm-7.6-3.52h4.09v-4.09H14.38Z" transform="translate(0 -0.57)"/><path class="cls__1" d="M37.19,301.3H26.07V290.18H37.19Zm-7.61-3.52h4.09v-4.09H29.59Z" transform="translate(0 -0.57)"/><path class="cls__1" d="M52.4,301.3H41.28V290.18H52.4Zm-7.61-3.52h4.09v-4.09H44.79Z" transform="translate(0 -0.57)"/><path class="cls__1" d="M22,316.5H10.86V305.39H22ZM14.38,313h4.09V308.9H14.38Z" transform="translate(0 -0.57)"/><path class="cls__1" d="M37.19,316.5H26.07V305.39H37.19ZM29.59,313h4.09V308.9H29.59Z" transform="translate(0 -0.57)"/><path class="cls__1" d="M52.4,316.5H41.28V305.39H52.4ZM44.79,313h4.09V308.9H44.79Z" transform="translate(0 -0.57)"/><path class="cls__1" d="M22,331.71H10.86V320.6H22Zm-7.6-3.52h4.09v-4.09H14.38Z" transform="translate(0 -0.57)"/><path class="cls__1" d="M52.4,331.71H26.07V320.6H52.4ZM29.59,328.2h19.3v-4.09H29.59Z" transform="translate(0 -0.57)"/><rect class="cls__4" x="44.94" y="273.31" width="3.8" height="3.52"/><rect class="cls__4" x="37.33" y="273.31" width="3.81" height="3.52"/><rect class="cls__4" x="29.73" y="273.31" width="3.8" height="3.52"/><rect class="cls__1" x="208.46" y="33.54" width="3.41" height="3.41"/><rect class="cls__1" x="215.28" y="33.49" width="49.68" height="3.51"/><rect class="cls__1" x="208.46" y="40.37" width="3.41" height="3.41"/><rect class="cls__1" x="215.28" y="40.32" width="49.68" height="3.51"/><rect class="cls__1" x="208.46" y="47.2" width="3.41" height="3.41"/><rect class="cls__1" x="215.28" y="47.15" width="49.68" height="3.51"/><rect class="cls__1" x="208.46" y="54.02" width="3.41" height="3.41"/><rect class="cls__1" x="215.28" y="53.97" width="49.68" height="3.51"/><rect class="cls__1" x="208.46" y="60.85" width="3.41" height="3.42"/><rect class="cls__1" x="215.28" y="60.8" width="49.68" height="3.51"/><rect class="cls__1" x="208.46" y="67.68" width="3.41" height="3.41"/><rect class="cls__1" x="215.28" y="67.63" width="49.68" height="3.51"/><path class="cls__1" d="M138.56,50.5a13.36,13.36,0,1,1,13.36-13.37A13.38,13.38,0,0,1,138.56,50.5Zm0-23.21a9.85,9.85,0,1,0,9.85,9.84A9.85,9.85,0,0,0,138.56,27.29Z" transform="translate(0 -0.57)"/><path class="cls__1" d="M173.37,50.5a13.36,13.36,0,1,1,13.36-13.37A13.38,13.38,0,0,1,173.37,50.5Zm0-23.21a9.85,9.85,0,1,0,9.85,9.84A9.85,9.85,0,0,0,173.37,27.29Z" transform="translate(0 -0.57)"/><path class="cls__1" d="M163.53,37.13H160a4,4,0,0,0-8.09,0h-3.51a7.56,7.56,0,0,1,15.12,0Z" transform="translate(0 -0.57)"/><path class="cls__1" d="M186.73,37.13h-3.51v-29a4,4,0,0,0-8.09,0h-3.51a7.56,7.56,0,0,1,15.12,0Z" transform="translate(0 -0.57)"/><path class="cls__1" d="M128.72,37.13h-3.51v-29a4,4,0,0,0-8.09,0H113.6a7.56,7.56,0,0,1,15.12,0v29Z" transform="translate(0 -0.57)"/><path class="cls__3" d="M141.28,302.22a18.11,18.11,0,1,1-18.1-18.1A18.11,18.11,0,0,1,141.28,302.22Z" transform="translate(0 -0.57)"/><rect class="cls__1" x="121.42" y="291.67" width="3.51" height="14.49"/><rect class="cls__1" x="121.42" y="308.9" width="3.51" height="3.7"/><polygon class="cls__2" points="175.38 346.23 167.75 353.86 143.62 329.74 151.25 322.1 175.38 346.23"/><path class="cls__1" d="M123.18,329a26.82,26.82,0,1,1,19-7.86A26.63,26.63,0,0,1,123.18,329Zm0-50.12a23.31,23.31,0,1,0,16.47,6.83A23.15,23.15,0,0,0,123.18,278.92Z" transform="translate(0 -0.57)"/><rect class="cls__1" x="142.42" y="318.59" width="3.51" height="9.26" transform="translate(-186.32 196.05) rotate(-45)"/><rect class="cls__1" x="139.71" y="324.73" width="15.42" height="3.51" transform="translate(-187.66 199.25) rotate(-44.99)"/><path class="cls__1" d="M226.3,26.48h-3.51V14.31a1.72,1.72,0,0,0-1.72-1.72h-2.31A1.72,1.72,0,0,0,217,14.31V26.48h-3.51V14.31a5.24,5.24,0,0,1,5.23-5.23h2.31a5.23,5.23,0,0,1,5.23,5.23V26.48Z" transform="translate(0 -0.57)"/><rect class="cls__1" x="213.52" y="15.45" width="12.77" height="3.51"/><path class="cls__1" d="M236.81,26.48h-7.54V9.07h7.54a5.23,5.23,0,0,1,3.91,8.71,5.23,5.23,0,0,1-3.91,8.7Zm-4-3.51h4a1.71,1.71,0,0,0,0-3.43h-4Zm0-6.94h4a1.72,1.72,0,0,0,0-3.43h-4Z" transform="translate(0 -0.57)"/><path
    class="cls__1"
    d="M252.52,26.48h-2.32A5.23,5.23,0,0,1,245,21.25V14.31a5.25,5.25,0,0,1,5.23-5.23h2.32a5.24,5.24,0,0,1,5.23,5.23v1.76h-3.51V14.31a1.72,1.72,0,0,0-1.71-1.72h-2.32a1.73,1.73,0,0,0-1.71,1.72v6.95a1.68,1.68,0,0,0,.5,1.21,1.7,1.7,0,0,0,1.21.51h2.32a1.73,1.73,0,0,0,1.22-.51,1.69,1.69,0,0,0,.49-1.21V19.5h3.52v1.76a5.22,5.22,0,0,1-5.23,5.23Z"
    transform="translate(0 -0.57)"/><path class="cls__1" d="M223,309.77H219.5v-2.65a10.51,10.51,0,0,1,5-9l.14-.08a2.86,2.86,0,0,0,.31-.18,7.06,7.06,0,1,0-10.73-6h-3.51a10.58,10.58,0,1,1,16.17,9,5.61,5.61,0,0,1-.57.34,7,7,0,0,0-3.27,6Z" transform="translate(0 -0.57)"/><rect class="cls__1" x="219.5" y="312.6" width="3.51" height="3.41"/><path class="cls__1" d="M198,327.29h-3.51V326a6,6,0,0,1,2.82-5.11l.1-.06.23-.12a2.5,2.5,0,1,0-3.89-2.09h-3.51a6,6,0,1,1,9.22,5.11l-.31.17A2.5,2.5,0,0,0,198,326v1.27Z" transform="translate(0 -0.57)"/><rect class="cls__1" x="194.51" y="330.13" width="3.51" height="3.42"/></svg>
